<svg xmlns="http://www.w3.org/2000/svg" xmlns:xlink="http://www.w3.org/1999/xlink" width="1920" zoomAndPan="magnify" viewBox="280 70 780 660" height="1080" preserveAspectRatio="xMidYMid meet" version="1.0"><defs><g/><clipPath id="b219d75c7f"><rect x="0" width="519" y="0" height="518"/></clipPath><clipPath id="dac5a6bd72"><rect x="0" width="332" y="0" height="526"/></clipPath></defs><g transform="matrix(1, 0, 0, 1, 323, 101)"><g clip-path="url(#b219d75c7f)"><g fill="#efecde" fill-opacity="1"><g transform="translate(34.163758, 334.435099)"><g><path d="M 265.703125 -106.671875 L 251.015625 -89.0625 C 233.078125 -67.851562 217.175781 -50.476562 203.3125 -36.9375 C 189.445312 -23.40625 175.828125 -12.234375 162.453125 -3.421875 C 130.484375 17.453125 98.515625 27.890625 66.546875 27.890625 C 48.609375 27.890625 32.625 24.460938 18.59375 17.609375 C 4.5625 10.765625 -6.445312 1.304688 -14.4375 -10.765625 C -22.425781 -22.835938 -26.421875 -36.535156 -26.421875 -51.859375 C -26.421875 -71.429688 -21.691406 -90.351562 -12.234375 -108.625 C -2.773438 -126.894531 10.109375 -143.285156 26.421875 -157.796875 C 42.734375 -172.316406 61.164062 -183.816406 81.71875 -192.296875 C 102.269531 -200.773438 123.472656 -205.015625 145.328125 -205.015625 C 165.878906 -205.015625 182.757812 -198.898438 195.96875 -186.671875 C 209.175781 -174.441406 215.78125 -158.863281 215.78125 -139.9375 C 215.78125 -128.519531 213.007812 -117.1875 207.46875 -105.9375 C 201.925781 -94.6875 194.257812 -85.144531 184.46875 -77.3125 C 179.90625 -73.71875 176.96875 -71.921875 175.65625 -71.921875 C 174.03125 -71.921875 173.21875 -72.578125 173.21875 -73.890625 C 173.21875 -75.191406 174.847656 -76.820312 178.109375 -78.78125 C 187.242188 -84.65625 194.828125 -93.625 200.859375 -105.6875 C 206.898438 -117.757812 209.921875 -129.992188 209.921875 -142.390625 C 209.921875 -159.347656 203.722656 -173.453125 191.328125 -184.703125 C 178.929688 -195.960938 163.269531 -201.59375 144.34375 -201.59375 C 124.125 -201.59375 104.304688 -197.269531 84.890625 -188.625 C 65.484375 -179.976562 48.03125 -168.316406 32.53125 -153.640625 C 17.039062 -138.960938 4.648438 -122.488281 -4.640625 -104.21875 C -13.941406 -85.957031 -18.59375 -67.363281 -18.59375 -48.4375 C -18.59375 -26.582031 -10.679688 -9.132812 5.140625 3.90625 C 20.960938 16.957031 42.082031 23.484375 68.5 23.484375 C 85.789062 23.484375 102.019531 20.300781 117.1875 13.9375 C 132.351562 7.582031 149.398438 -2.929688 168.328125 -17.609375 C 178.429688 -25.765625 189.84375 -36.039062 202.5625 -48.4375 C 215.289062 -60.832031 228.421875 -74.613281 241.953125 -89.78125 C 255.492188 -104.957031 268.460938 -120.375 280.859375 -136.03125 L 333.21875 -202.578125 C 350.507812 -224.753906 366.164062 -243.34375 380.1875 -258.34375 C 394.21875 -273.351562 407.757812 -286.40625 420.8125 -297.5 C 430.269531 -305.65625 440.132812 -312.832031 450.40625 -319.03125 C 460.6875 -325.226562 467.617188 -328.328125 471.203125 -328.328125 C 472.835938 -328.328125 473.65625 -327.347656 473.65625 -325.390625 C 473.65625 -323.429688 471.367188 -320.660156 466.796875 -317.078125 C 452.773438 -303.046875 439.398438 -285.507812 426.671875 -264.46875 C 413.953125 -243.425781 403.84375 -221.164062 396.34375 -197.6875 L 379.703125 -150.703125 C 373.503906 -134.066406 367.144531 -119.46875 360.625 -106.90625 C 354.101562 -94.351562 346.679688 -82.9375 338.359375 -72.65625 C 330.035156 -62.382812 320.25 -52.4375 309 -42.8125 C 297.75 -33.1875 284.289062 -22.992188 268.625 -12.234375 L 273.53125 -11.75 L 284.296875 -9.296875 C 289.179688 -8.316406 294.316406 -7.5 299.703125 -6.84375 C 305.085938 -6.195312 310.390625 -5.875 315.609375 -5.875 C 328.003906 -5.875 337.789062 -7.664062 344.96875 -11.25 C 346.925781 -11.90625 348.066406 -12.234375 348.390625 -12.234375 C 349.367188 -12.234375 349.859375 -11.90625 349.859375 -11.25 C 349.859375 -8.96875 345.535156 -6.6875 336.890625 -4.40625 C 328.242188 -2.125 319.519531 -0.984375 310.71875 -0.984375 C 300.601562 -0.984375 290.328125 -2.285156 279.890625 -4.890625 L 269.609375 -7.828125 L 262.265625 -8.8125 C 250.203125 -2.28125 239.601562 0.984375 230.46875 0.984375 C 224.59375 0.984375 221.65625 -0.8125 221.65625 -4.40625 C 221.65625 -7.007812 224.753906 -9.207031 230.953125 -11 C 237.148438 -12.800781 244.328125 -13.703125 252.484375 -13.703125 C 252.804688 -13.703125 253.539062 -13.703125 254.6875 -13.703125 C 255.832031 -13.703125 257.21875 -13.539062 258.84375 -13.21875 L 262.265625 -13.21875 C 271.078125 -18.4375 278.90625 -24.390625 285.75 -31.078125 C 292.601562 -37.765625 299.617188 -46.734375 306.796875 -57.984375 C 313.972656 -69.234375 322.617188 -84.320312 332.734375 -103.25 L 334.203125 -106.671875 Z M 313.15625 -169.296875 L 269.609375 -112.046875 C 278.742188 -111.722656 285.921875 -111.476562 291.140625 -111.3125 C 296.359375 -111.15625 301.738281 -111.078125 307.28125 -111.078125 C 310.550781 -111.078125 314.710938 -111.078125 319.765625 -111.078125 C 324.816406 -111.078125 330.441406 -111.238281 336.640625 -111.5625 C 339.910156 -117.4375 342.601562 -122.492188 344.71875 -126.734375 C 346.84375 -130.972656 348.882812 -135.539062 350.84375 -140.4375 L 376.765625 -198.171875 C 383.941406 -214.148438 391.117188 -228.335938 398.296875 -240.734375 C 405.472656 -253.128906 414.117188 -265.523438 424.234375 -277.921875 C 434.347656 -290.316406 447.234375 -304.507812 462.890625 -320.5 C 446.898438 -314.625 425.691406 -298.394531 399.265625 -271.8125 C 372.847656 -245.226562 344.144531 -211.054688 313.15625 -169.296875 Z M 398.796875 -288.6875 L 370.40625 -262.765625 C 361.269531 -254.609375 352.378906 -248.328125 343.734375 -243.921875 C 335.097656 -239.515625 327.023438 -237.3125 319.515625 -237.3125 C 313.316406 -237.3125 307.929688 -239.429688 303.359375 -243.671875 C 298.796875 -247.910156 296.515625 -253.128906 296.515625 -259.328125 C 296.515625 -263.898438 297.65625 -268.46875 299.9375 -273.03125 C 302.226562 -277.601562 306.472656 -282.988281 312.671875 -289.1875 C 318.867188 -295.707031 321.96875 -301.578125 321.96875 -306.796875 C 321.96875 -310.710938 320.253906 -313.894531 316.828125 -316.34375 C 313.398438 -318.789062 308.914062 -320.015625 303.375 -320.015625 C 293.257812 -320.015625 281.351562 -316.671875 267.65625 -309.984375 C 253.957031 -303.296875 240.5 -294.566406 227.28125 -283.796875 C 214.070312 -273.035156 202.578125 -261.128906 192.796875 -248.078125 C 191.484375 -245.796875 190.335938 -244.65625 189.359375 -244.65625 C 188.378906 -244.65625 187.890625 -245.304688 187.890625 -246.609375 C 187.890625 -248.890625 189.113281 -251.660156 191.5625 -254.921875 C 194.007812 -258.191406 198.171875 -262.757812 204.046875 -268.625 C 240.898438 -304.507812 274.660156 -322.453125 305.328125 -322.453125 C 313.160156 -322.453125 319.601562 -320.492188 324.65625 -316.578125 C 329.71875 -312.671875 332.25 -307.453125 332.25 -300.921875 C 332.25 -293.421875 328.171875 -284.941406 320.015625 -275.484375 C 314.796875 -269.285156 311.285156 -264.800781 309.484375 -262.03125 C 307.691406 -259.257812 306.796875 -256.078125 306.796875 -252.484375 C 306.796875 -244.984375 311.363281 -241.234375 320.5 -241.234375 C 327.019531 -241.234375 333.460938 -242.941406 339.828125 -246.359375 C 346.191406 -249.785156 354.425781 -255.90625 364.53125 -264.71875 L 395.359375 -291.625 C 401.554688 -296.84375 408.082031 -301.816406 414.9375 -306.546875 C 421.789062 -311.285156 428.070312 -315.285156 433.78125 -318.546875 C 439.488281 -321.804688 443.15625 -323.273438 444.78125 -322.953125 C 445.4375 -322.953125 445.765625 -322.460938 445.765625 -321.484375 C 445.765625 -320.828125 444.296875 -319.847656 441.359375 -318.546875 C 437.117188 -317.234375 431.242188 -313.882812 423.734375 -308.5 C 416.234375 -303.125 407.921875 -296.519531 398.796875 -288.6875 Z M 398.796875 -288.6875 "/></g></g></g></g></g><g transform="matrix(1, 0, 0, 1, 685, 172)"><g clip-path="url(#dac5a6bd72)"><g fill="#efecde" fill-opacity="1"><g transform="translate(1.140812, 426.742421)"><g><path d="M 167.859375 -334.25 C 147.304688 -334.25 127.894531 -329.679688 109.625 -320.546875 C 91.351562 -311.410156 75.445312 -299.007812 61.90625 -283.34375 C 48.363281 -267.6875 37.597656 -249.414062 29.609375 -228.53125 C 21.617188 -207.65625 17.625 -185.632812 17.625 -162.46875 C 17.625 -139.3125 21.703125 -117.289062 29.859375 -96.40625 C 38.015625 -75.53125 48.941406 -57.257812 62.640625 -41.59375 C 76.335938 -25.9375 92.160156 -13.539062 110.109375 -4.40625 C 128.054688 4.726562 146.816406 9.296875 166.390625 9.296875 C 182.046875 9.296875 196.804688 7.253906 210.671875 3.171875 C 224.535156 -0.898438 236.769531 -7.175781 247.375 -15.65625 C 257.976562 -24.144531 266.296875 -34.992188 272.328125 -48.203125 C 278.367188 -61.410156 281.390625 -77.148438 281.390625 -95.421875 L 281.390625 -112.0625 L 323.96875 -112.0625 L 323.96875 -119.890625 L 178.625 -119.890625 L 178.625 -112.0625 L 230.984375 -112.0625 L 230.984375 -66.0625 C 230.984375 -58.238281 230.164062 -50.410156 228.53125 -42.578125 C 226.90625 -34.742188 223.804688 -27.644531 219.234375 -21.28125 C 214.671875 -14.925781 208.226562 -9.707031 199.90625 -5.625 C 191.59375 -1.550781 180.742188 0.484375 167.359375 0.484375 C 138.984375 0.484375 116.960938 -10.769531 101.296875 -33.28125 C 85.640625 -55.789062 77.8125 -89.226562 77.8125 -133.59375 L 77.8125 -193.796875 C 77.8125 -216.953125 80.015625 -236.847656 84.421875 -253.484375 C 88.828125 -270.128906 95.023438 -283.753906 103.015625 -294.359375 C 111.003906 -304.960938 120.460938 -312.789062 131.390625 -317.84375 C 142.328125 -322.90625 154.484375 -325.4375 167.859375 -325.4375 C 191.671875 -325.4375 212.054688 -318.503906 229.015625 -304.640625 C 245.984375 -290.773438 259.691406 -267.203125 270.140625 -233.921875 C 271.117188 -230.984375 272.585938 -229.515625 274.546875 -229.515625 C 276.492188 -229.515625 277.46875 -230.984375 277.46875 -233.921875 L 277.46875 -326.40625 C 277.46875 -330 276.164062 -331.796875 273.5625 -331.796875 C 271.925781 -331.796875 270.703125 -331.46875 269.890625 -330.8125 C 269.078125 -330.164062 268.015625 -329.1875 266.703125 -327.875 L 245.671875 -306.84375 C 236.203125 -315.320312 224.695312 -322.007812 211.15625 -326.90625 C 197.625 -331.800781 183.191406 -334.25 167.859375 -334.25 Z M 167.859375 -334.25 "/></g></g></g></g></g></svg>